<svg version="1.1" id="Layer_1" xmlns="http://www.w3.org/2000/svg" xmlns:xlink="http://www.w3.org/1999/xlink" x="0px" y="0px"
	 width="100%" viewBox="0 0 225 225" enable-background="new 0 0 225 225" xml:space="preserve">
<path fill="#FEFEFF" opacity="1.000000" stroke="none" 
	d="
M132.000000,226.000000 
	C88.000000,226.000000 44.500004,226.000000 1.000006,226.000000 
	C1.000004,151.000000 1.000004,76.000015 1.000002,1.000016 
	C75.999992,1.000011 150.999985,1.000011 225.999969,1.000005 
	C225.999985,75.999985 225.999985,150.999969 226.000000,225.999969 
	C194.833328,226.000000 163.666672,226.000000 132.000000,226.000000 
M144.485825,186.973755 
	C144.485825,186.973755 144.971970,186.897079 145.901962,187.050598 
	C168.277512,186.999435 190.653061,186.948257 213.496613,186.964035 
	C213.496613,186.964035 213.938644,186.796371 214.530396,186.740250 
	C215.006485,186.154221 215.482590,185.568176 216.329529,184.243866 
	C216.428375,183.089478 216.613113,181.935104 216.613586,180.780685 
	C216.628738,144.200577 216.629852,107.620461 216.610382,71.040352 
	C216.609680,69.724998 216.379257,68.409752 216.526108,66.435661 
	C216.440002,65.973709 216.353897,65.511757 216.478943,64.117111 
	C216.478943,56.171066 216.478943,48.225018 216.478943,40.168144 
	C147.610001,40.168144 79.281815,40.168144 10.670618,40.168144 
	C10.670618,48.628742 10.670618,56.885757 10.485712,65.931381 
	C10.614044,68.030510 10.742377,70.129646 10.734800,73.121071 
	C10.780869,109.773956 10.826939,146.426834 10.739663,183.774765 
	C11.513310,184.777557 12.286958,185.780350 13.501667,186.938736 
	C13.501667,186.938736 13.965912,186.881989 14.894876,187.047546 
	C37.607025,186.984818 60.319172,186.922104 83.955879,187.003372 
	C103.972511,186.957367 123.989136,186.911346 144.485825,186.973755 
z"/>
<path fill="#30E2E6" opacity="1.000000" stroke="none" 
	d="
M13.060606,186.783142 
	C12.286958,185.780350 11.513310,184.777557 11.127772,183.141418 
	C11.677882,180.710464 11.979269,178.912994 11.981075,177.115219 
	C12.010454,147.879684 12.001884,118.644112 12.001884,89.408554 
	C12.001884,82.284531 12.001883,75.160507 12.001883,68.036484 
	C11.788045,68.021553 11.574208,68.006622 11.360371,67.991692 
	C11.197151,69.404053 11.033931,70.816414 10.870710,72.228775 
	C10.742377,70.129646 10.614044,68.030510 10.946699,65.507843 
	C12.962203,65.029823 14.516722,64.975327 16.529572,64.988739 
	C80.604950,65.070297 144.221985,65.084908 207.839035,65.088829 
	C208.833832,65.088890 209.828644,64.957298 211.216522,64.968117 
	C213.162338,65.049332 214.715073,65.049568 216.267792,65.049797 
	C216.353897,65.511757 216.440002,65.973709 216.074921,66.927933 
	C215.415237,68.522911 215.025467,69.625465 215.024506,70.728355 
	C214.992767,107.417976 214.987625,144.107651 215.038712,180.797226 
	C215.040665,182.192627 215.638535,183.587204 215.958710,184.982147 
	C215.482590,185.568176 215.006485,186.154221 214.138412,186.632904 
	C213.397690,186.369064 213.158417,186.492905 213.028610,186.897079 
	C190.653061,186.948257 168.277512,186.999435 145.355438,186.784271 
	C144.646851,186.282486 144.430557,186.118530 144.082367,185.561493 
	C144.004684,160.149872 144.004684,135.202820 144.004684,110.150574 
	C123.455811,110.150574 103.409622,110.150574 83.031319,110.150574 
	C83.031319,135.925110 83.031319,161.392242 83.031319,186.859375 
	C60.319172,186.922104 37.607025,186.984818 14.358920,186.815979 
	C13.822964,186.584412 13.403794,186.456207 13.403794,186.456207 
	C13.403794,186.456207 13.060607,186.783142 13.060606,186.783142 
M211.001343,89.061501 
	C210.972794,84.373795 210.944229,79.686089 211.007156,74.498535 
	C210.972305,74.332771 210.937454,74.167015 210.482040,73.267227 
	C208.659805,73.194916 206.837601,73.059731 205.015350,73.059402 
	C144.323547,73.048409 83.631744,73.052078 22.939943,73.042465 
	C20.948618,73.042152 18.957310,72.926033 16.748112,72.571068 
	C16.506592,72.743355 16.265072,72.915642 15.999308,73.543312 
	C15.999308,73.543312 16.049446,73.996559 15.936044,74.495148 
	C15.964387,74.663216 15.992729,74.831291 15.946949,75.929199 
	C15.971783,80.618271 15.996617,85.307350 16.075348,90.820084 
	C17.932713,91.160423 19.789684,91.795372 21.647499,91.797852 
	C63.812614,91.854080 105.977829,91.841103 148.143021,91.841103 
	C167.475677,91.841103 186.808609,91.884804 206.140472,91.760956 
	C207.745972,91.750671 209.344193,90.607857 211.001343,89.061501 
M19.493589,159.697556 
	C25.936913,174.736740 39.428684,181.804474 54.446468,178.007828 
	C69.352432,174.239426 78.885681,158.996643 75.793221,143.876328 
	C72.711670,128.809372 58.512566,118.652840 43.443958,120.737068 
	C24.650919,123.336449 14.490385,139.337860 19.493589,159.697556 
M174.611908,120.892517 
	C157.159409,124.837624 147.069672,140.691254 151.529053,157.161728 
	C155.709656,172.602570 170.753952,181.785019 186.083084,178.252136 
	C201.361786,174.730881 211.480942,159.963806 208.829071,145.058441 
	C205.955338,128.905991 191.614700,118.500061 174.611908,120.892517 
M206.700775,100.904129 
	C200.711136,96.828087 194.442413,98.389786 192.868698,104.412148 
	C191.832657,108.376892 193.030060,111.693504 196.527786,113.823242 
	C200.038635,115.960983 203.644272,115.548241 206.523270,112.663979 
	C209.900238,109.280861 210.036621,105.402756 206.700775,100.904129 
M18.848717,102.717621 
	C16.916567,106.829483 17.542057,110.491295 21.118029,113.325417 
	C24.179026,115.751404 27.624166,115.736565 30.786766,113.561188 
	C33.960751,111.377991 34.981213,108.172714 34.056644,104.409035 
	C32.698685,98.881081 24.354176,95.310738 18.848717,102.717621 
z"/>
<path fill="#F70ACE" opacity="1.000000" stroke="none" 
	d="
M83.493599,186.931366 
	C83.031319,161.392242 83.031319,135.925110 83.031319,110.150574 
	C103.409622,110.150574 123.455811,110.150574 144.004684,110.150574 
	C144.004684,135.202820 144.004684,160.149872 144.014694,185.765961 
	C144.024704,186.435013 144.005768,186.865326 144.005768,186.865326 
	C123.989136,186.911346 103.972511,186.957367 83.493599,186.931366 
M89.309883,142.666382 
	C89.309883,149.091934 89.309883,155.517487 89.309883,162.062958 
	C105.698242,162.062958 121.318336,162.062958 137.146500,162.062958 
	C137.146500,153.144272 137.146500,144.437836 137.146500,135.813446 
	C121.029297,135.813446 105.310059,135.813446 89.310112,135.813446 
	C89.310112,138.076431 89.310112,139.898132 89.309883,142.666382 
M93.261986,172.248199 
	C94.485756,173.231262 95.709526,174.214325 97.759422,175.861023 
	C97.759422,171.722839 97.759422,169.364807 97.759422,167.106155 
	C92.974335,165.513474 93.068741,168.423553 93.261986,172.248199 
M123.936150,166.917435 
	C122.687408,166.917435 121.438667,166.917435 120.306335,166.917435 
	C120.306335,169.673065 120.306335,172.046738 120.306335,174.398239 
	C125.028320,174.539948 125.028320,174.539948 123.936150,166.917435 
M128.945358,168.951294 
	C128.945358,170.728424 128.945358,172.505554 128.945358,174.236664 
	C134.137421,174.633820 134.459167,173.976837 132.824554,166.277649 
	C131.437164,166.945084 130.199600,167.540436 128.945358,168.951294 
M106.943504,172.278046 
	C106.943504,170.546570 106.943504,168.815109 106.943504,166.710846 
	C105.006653,166.837540 103.634743,166.927292 102.370216,167.010010 
	C102.370216,169.672546 102.370216,171.910416 102.370216,175.406647 
	C104.296768,174.435776 105.614769,173.771591 106.943504,172.278046 
M114.285767,174.672409 
	C115.033485,172.297012 115.781204,169.921616 116.595886,167.333466 
	C115.030731,166.988937 114.416016,166.754822 113.796799,166.742233 
	C113.013916,166.726318 112.227379,166.890778 111.499825,166.971100 
	C110.727875,173.259460 110.727875,173.259460 114.285767,174.672409 
z"/>
<path fill="#F707CF" opacity="1.000000" stroke="none" 
	d="
M16.071239,64.920837 
	C14.516722,64.975327 12.962203,65.029823 11.039152,65.113541 
	C10.670618,56.885757 10.670618,48.628742 10.670618,40.168144 
	C79.281815,40.168144 147.610001,40.168144 216.478943,40.168144 
	C216.478943,48.225018 216.478943,56.171066 216.373383,64.583450 
	C214.715073,65.049568 213.162338,65.049332 211.214203,64.510254 
	C210.818817,59.225124 210.818817,54.478840 210.818817,49.699669 
	C145.551758,49.699669 81.041466,49.699669 16.071239,49.699669 
	C16.071239,54.988644 16.071239,59.954739 16.071239,64.920837 
z"/>
<path fill="#15E1E5" opacity="1.000000" stroke="none" 
	d="
M216.144119,184.613007 
	C215.638535,183.587204 215.040665,182.192627 215.038712,180.797226 
	C214.987625,144.107651 214.992767,107.417976 215.024506,70.728355 
	C215.025467,69.625465 215.415237,68.522911 215.939819,67.257332 
	C216.379257,68.409752 216.609680,69.724998 216.610382,71.040352 
	C216.629852,107.620461 216.628738,144.200577 216.613586,180.780685 
	C216.613113,181.935104 216.428375,183.089478 216.144119,184.613007 
z"/>
<path fill="#15E1E5" opacity="1.000000" stroke="none" 
	d="
M10.802755,72.674927 
	C11.033931,70.816414 11.197151,69.404053 11.360371,67.991692 
	C11.574208,68.006622 11.788045,68.021553 12.001883,68.036484 
	C12.001883,75.160507 12.001884,82.284531 12.001884,89.408554 
	C12.001884,118.644112 12.010454,147.879684 11.981075,177.115219 
	C11.979269,178.912994 11.677882,180.710464 11.194445,182.793915 
	C10.826939,146.426834 10.780869,109.773956 10.802755,72.674927 
z"/>
<path fill="#15E1E5" opacity="1.000000" stroke="none" 
	d="
M13.281137,186.860931 
	C13.060607,186.783142 13.403794,186.456207 13.403794,186.456207 
	C13.403794,186.456207 13.822964,186.584412 13.894438,186.733200 
	C13.965912,186.881989 13.501667,186.938736 13.281137,186.860931 
z"/>
<path fill="#15E1E5" opacity="1.000000" stroke="none" 
	d="
M144.245789,186.919540 
	C144.005768,186.865326 144.024704,186.435013 144.092377,186.230545 
	C144.430557,186.118530 144.646851,186.282486 144.890442,186.707520 
	C144.971970,186.897079 144.485825,186.973755 144.245789,186.919540 
z"/>
<path fill="#15E1E5" opacity="1.000000" stroke="none" 
	d="
M213.262604,186.930557 
	C213.158417,186.492905 213.397690,186.369064 213.842529,186.660980 
	C213.938644,186.796371 213.496613,186.964035 213.262604,186.930557 
z"/>
<path fill="#913BFD" opacity="1.000000" stroke="none" 
	d="
M210.915680,74.998383 
	C210.944229,79.686089 210.972794,84.373795 210.509369,89.547424 
	C145.352097,90.021034 80.686775,90.008728 16.021450,89.996422 
	C15.996617,85.307350 15.971783,80.618271 16.134056,75.371582 
	C16.377045,74.711800 16.506073,74.565689 16.475790,74.515274 
	C16.361782,74.325493 16.195902,74.166855 16.049446,73.996559 
	C16.049446,73.996559 15.999308,73.543312 16.248642,73.266418 
	C16.497976,72.989525 16.965994,72.863892 16.965994,72.863892 
	C18.957310,72.926033 20.948618,73.042152 22.939943,73.042465 
	C83.631744,73.052078 144.323547,73.048409 205.015350,73.059402 
	C206.837601,73.059731 208.659805,73.194916 210.550323,73.731689 
	C210.717621,74.463562 210.816650,74.730972 210.915680,74.998383 
M197.177597,78.794128 
	C196.903091,80.880630 196.133850,83.078209 196.566605,85.005928 
	C196.777267,85.944283 199.368912,87.094986 200.637589,86.854767 
	C202.132202,86.571762 203.954422,85.155746 204.590179,83.756470 
	C206.253601,80.095306 202.739532,77.423294 197.177597,78.794128 
z"/>
<path fill="#FFF7FD" opacity="1.000000" stroke="none" 
	d="
M16.529572,64.988739 
	C16.071239,59.954739 16.071239,54.988644 16.071239,49.699669 
	C81.041466,49.699669 145.551758,49.699669 210.818817,49.699669 
	C210.818817,54.478840 210.818817,59.225124 210.821136,64.429276 
	C209.828644,64.957298 208.833832,65.088890 207.839035,65.088829 
	C144.221985,65.084908 80.604950,65.070297 16.529572,64.988739 
z"/>
<path fill="#913BFD" opacity="1.000000" stroke="none" 
	d="
M19.335545,159.325455 
	C14.490385,139.337860 24.650919,123.336449 43.443958,120.737068 
	C58.512566,118.652840 72.711670,128.809372 75.793221,143.876328 
	C78.885681,158.996643 69.352432,174.239426 54.446468,178.007828 
	C39.428684,181.804474 25.936913,174.736740 19.335545,159.325455 
M46.630920,141.398453 
	C39.819656,143.252594 36.997726,148.096146 39.717678,153.390778 
	C41.622383,157.098450 44.857399,158.722488 48.810390,157.801620 
	C52.686478,156.898651 55.101768,154.249405 55.212265,149.989746 
	C55.333801,145.304108 53.140518,142.902878 46.630920,141.398453 
z"/>
<path fill="#913BFD" opacity="1.000000" stroke="none" 
	d="
M175.026520,120.861900 
	C191.614700,118.500061 205.955338,128.905991 208.829071,145.058441 
	C211.480942,159.963806 201.361786,174.730881 186.083084,178.252136 
	C170.753952,181.785019 155.709656,172.602570 151.529053,157.161728 
	C147.069672,140.691254 157.159409,124.837624 175.026520,120.861900 
M178.146637,141.674057 
	C174.338882,142.593704 171.558365,144.985184 171.830750,148.861496 
	C172.017136,151.514084 173.386124,155.256119 175.385391,156.307693 
	C177.806244,157.581009 181.824844,157.405441 184.470596,156.269547 
	C187.960266,154.771332 188.911880,150.923737 187.711090,147.248749 
	C186.369598,143.143097 183.219482,141.261993 178.146637,141.674057 
z"/>
<path fill="#875CFA" opacity="1.000000" stroke="none" 
	d="
M16.048401,90.408249 
	C80.686775,90.008728 145.352097,90.021034 210.481598,90.012291 
	C209.344193,90.607857 207.745972,91.750671 206.140472,91.760956 
	C186.808609,91.884804 167.475677,91.841103 148.143021,91.841103 
	C105.977829,91.841103 63.812614,91.854080 21.647499,91.797852 
	C19.789684,91.795372 17.932713,91.160423 16.048401,90.408249 
z"/>
<path fill="#F50CCF" opacity="1.000000" stroke="none" 
	d="
M206.948669,101.198807 
	C210.036621,105.402756 209.900238,109.280861 206.523270,112.663979 
	C203.644272,115.548241 200.038635,115.960983 196.527786,113.823242 
	C193.030060,111.693504 191.832657,108.376892 192.868698,104.412148 
	C194.442413,98.389786 200.711136,96.828087 206.948669,101.198807 
z"/>
<path fill="#F50DCF" opacity="1.000000" stroke="none" 
	d="
M19.030037,102.371063 
	C24.354176,95.310738 32.698685,98.881081 34.056644,104.409035 
	C34.981213,108.172714 33.960751,111.377991 30.786766,113.561188 
	C27.624166,115.736565 24.179026,115.751404 21.118029,113.325417 
	C17.542057,110.491295 16.916567,106.829483 19.030037,102.371063 
z"/>
<path fill="#875CFA" opacity="1.000000" stroke="none" 
	d="
M210.961426,74.748459 
	C210.816650,74.730972 210.717621,74.463562 210.760605,74.098701 
	C210.937454,74.167015 210.972305,74.332771 210.961426,74.748459 
z"/>
<path fill="#875CFA" opacity="1.000000" stroke="none" 
	d="
M15.992744,74.245850 
	C16.195902,74.166855 16.361782,74.325493 16.475790,74.515274 
	C16.506073,74.565689 16.377045,74.711800 16.171116,74.906662 
	C15.992729,74.831291 15.964387,74.663216 15.992744,74.245850 
z"/>
<path fill="#21EAE4" opacity="1.000000" stroke="none" 
	d="
M16.857052,72.717484 
	C16.965994,72.863892 16.497976,72.989525 16.260763,73.038727 
	C16.265072,72.915642 16.506592,72.743355 16.857052,72.717484 
z"/>
<path fill="#F9C513" opacity="1.000000" stroke="none" 
	d="
M89.309998,142.193115 
	C89.310112,139.898132 89.310112,138.076431 89.310112,135.813446 
	C105.310059,135.813446 121.029297,135.813446 137.146500,135.813446 
	C137.146500,144.437836 137.146500,153.144272 137.146500,162.062958 
	C121.318336,162.062958 105.698242,162.062958 89.309883,162.062958 
	C89.309883,155.517487 89.309883,149.091934 89.309998,142.193115 
z"/>
<path fill="#49D0E3" opacity="1.000000" stroke="none" 
	d="
M93.261215,171.837524 
	C93.068741,168.423553 92.974335,165.513474 97.759422,167.106155 
	C97.759422,169.364807 97.759422,171.722839 97.759422,175.861023 
	C95.709526,174.214325 94.485756,173.231262 93.261215,171.837524 
z"/>
<path fill="#4AD1E4" opacity="1.000000" stroke="none" 
	d="
M124.258926,167.156158 
	C125.028320,174.539948 125.028320,174.539948 120.306335,174.398239 
	C120.306335,172.046738 120.306335,169.673065 120.306335,166.917435 
	C121.438667,166.917435 122.687408,166.917435 124.258926,167.156158 
z"/>
<path fill="#4BCFE2" opacity="1.000000" stroke="none" 
	d="
M128.953690,168.543549 
	C130.199600,167.540436 131.437164,166.945084 132.824554,166.277649 
	C134.459167,173.976837 134.137421,174.633820 128.945358,174.236664 
	C128.945358,172.505554 128.945358,170.728424 128.953690,168.543549 
z"/>
<path fill="#4BD1E4" opacity="1.000000" stroke="none" 
	d="
M106.938141,172.692719 
	C105.614769,173.771591 104.296768,174.435776 102.370216,175.406647 
	C102.370216,171.910416 102.370216,169.672546 102.370216,167.010010 
	C103.634743,166.927292 105.006653,166.837540 106.943504,166.710846 
	C106.943504,168.815109 106.943504,170.546570 106.938141,172.692719 
z"/>
<path fill="#4CD1E3" opacity="1.000000" stroke="none" 
	d="
M113.877853,174.688950 
	C110.727875,173.259460 110.727875,173.259460 111.499825,166.971100 
	C112.227379,166.890778 113.013916,166.726318 113.796799,166.742233 
	C114.416016,166.754822 115.030731,166.988937 116.595886,167.333466 
	C115.781204,169.921616 115.033485,172.297012 113.877853,174.688950 
z"/>
<path fill="#F7C615" opacity="1.000000" stroke="none" 
	d="
M197.446274,78.570023 
	C202.739532,77.423294 206.253601,80.095306 204.590179,83.756470 
	C203.954422,85.155746 202.132202,86.571762 200.637589,86.854767 
	C199.368912,87.094986 196.777267,85.944283 196.566605,85.005928 
	C196.133850,83.078209 196.903091,80.880630 197.446274,78.570023 
z"/>
<path fill="#F7C713" opacity="1.000000" stroke="none" 
	d="
M47.003567,141.398865 
	C53.140518,142.902878 55.333801,145.304108 55.212265,149.989746 
	C55.101768,154.249405 52.686478,156.898651 48.810390,157.801620 
	C44.857399,158.722488 41.622383,157.098450 39.717678,153.390778 
	C36.997726,148.096146 39.819656,143.252594 47.003567,141.398865 
z"/>
<path fill="#F7C713" opacity="1.000000" stroke="none" 
	d="
M178.508408,141.586716 
	C183.219482,141.261993 186.369598,143.143097 187.711090,147.248749 
	C188.911880,150.923737 187.960266,154.771332 184.470596,156.269547 
	C181.824844,157.405441 177.806244,157.581009 175.385391,156.307693 
	C173.386124,155.256119 172.017136,151.514084 171.830750,148.861496 
	C171.558365,144.985184 174.338882,142.593704 178.508408,141.586716 
z"/>
</svg>